<svg xmlns="http://www.w3.org/2000/svg" width="555" height="555" fill="none" viewBox="0 0 555 555">
   <path fill="#D87324"
      d="M243.345 434.693c-6-8.4-16.167-15.833-20.5-18.5l-9.5 14 22.5 17.5c5-.833 13.5-4.6 7.5-13Zm13-247c-15.2-42.4-112.667-103-159.5-128l-4 11.5 107.5 62 33.5 27.5c2.5 2.333 10.5 11 22.5 27Zm-40.5 12.5-77.5-39.247v-14.527s79.045 35.738 100.5 45.274c-.179.108-.369.223-.566.346-2.814 1.985-8.305 6.465-10.003 9.965a1.363 1.363 0 0 1-.13.284 5.077 5.077 0 0 0-.301.905h-5l.128-.468c-2.465-.582-5.249-1.671-7.128-2.532Zm24 15v13l41 26 174-103v-20l-118 44.053c-16.769 6.261-39.04 10.313-53 21.947-26-10.4-40.167 1.667-44 9v9Zm208 120-8 16 68.5-19 30-45.5c2.167-5.667 4.4-21.5-4-39.5-11.6 66-60.5 82.167-83.5 82l-3 6Zm-171-155.5c13.6-31.6 91.667-77.5 129-96.5l2 9.5-92.5 55c-9.5 7.333-30.5 24-38.5 32Zm-253 347.5h515v12h-515z" />
   <path fill="#E9E7DE" d="M17.845 515.193h516v12h-516z" />
   <path fill="#D87324" d="M14.845 503.193h514v12h-514z" />
   <path fill="#E9E7DE" d="M11.845 491.193h512v12h-512z" />
   <path fill="#D87324" d="M14.845 479.193h505v12h-505z" />
   <path fill="#E9E7DE" d="M17.845 467.193h496v12h-496z" />
   <path fill="#D87324" d="M23.845 455.193h485v12h-485z" />
   <path fill="#E9E7DE"
      d="M508.845 440.193v16h-452c-13.333 1.833-40 11-40 41.5s26.667 39.667 40 41.5h493v15.5h-493c-18.667.167-56-15.5-56-57s37.333-57.5 56-57.5h452Zm-454.5-332.5c0 80.4 24.333 255.167 36.5 332.5h13c-17.6-87.2-32-251.667-37-323-3.167-2.333-10.1-7.5-12.5-9.5Z" />
   <path fill="#E9E7DE"
      d="M71.845 122.193c12 141.6 29.667 271 37 318h22.5c-27.2-192.8-33.333-319.333-33-358.5 4 2.667 23.8 14 71 38 59 30 81.5 62 87 68-17.6-44.4-112.667-96.833-158-117.5v-9.5c-3.333-2.167-10.6-6.9-13-8.5-.4 22 1.833 63.833 3 82-.833-.667-5.3-4-16.5-12Z" />
   <path fill="#E9E7DE"
      d="M104.345 90.193c4.8 148 23 295 31.5 350h13.5c-22.5-170.5-23-299.5-23-313.5 4.5 8 49 28 53.5 30 25.6 8 53.333 23.667 64 30.5h9c-30.5-41-139-92-148.5-97Z" />
   <path fill="#E9E7DE"
      d="M138.345 157.193c-.8 97.6 12.333 229.333 19 283l19.5 7.5c21.833-.5 65.1-2.2 63.5-5-1.6-2.8-10.333-10.5-14.5-14v-214c0-9.5 3-12.5 3-14-.5-7-86-41.5-90.5-43.5Z" />
   <path fill="#E9E7DE"
      d="M239.845 215.693v226h91.5c114-44.5 124-185.5 124-188 21.5-32.5 40.5-31.5 43.5-31.5 35 2.5 35 35 35 38.5-1.6 56-54.667 75.667-81 78.5h-7l-13 26h11.5c102.5-15 109.5-101.5 109.5-104.5-5-59-52-59.5-55-59.5-22.8 0-38.833 14.667-44 22v-80.5c-54.667 20.333-165 61.5-169 63.5-7.5-3.974-7.5-3.974-19-3.974s-27 9.474-27 13.474Z" />
   <path fill="#D87324"
      d="M426.345 216.193c-.167 54.5-28.4 167.5-140 183.5 5-2.5 105.5-28 140-183.5Z" />
   <path fill="#E9E7DE"
      d="M144.845 80.193v-30c36.833 19 112.1 73.1 118.5 137.5-5-16.5-14-68.5-115.5-126v2.5c34.11 19.539 103.884 70.333 111.851 118.062.062.326.111.638.149.938a60.891 60.891 0 0 0-.149-.938c-2.688-14.166-28.829-52.795-114.851-102.062Zm137.5 109h-4.5c39.6-34 105.167-60.167 133-69v20c-30.8 8.8-98.5 36.333-128.5 49Z" />
   <path fill="#E9E7DE"
      d="M410.845 115.693c-66 20.8-118.833 57-137 72.5 36.8-38.8 102.667-69.5 131-80v-4c-54 18.4-109.833 60-131 78.5 34.8-44.8 101.833-79 131-90.5v-8.5l6-2.5v34.5Z" />
   <path fill="#E9E7DE"
      d="M365.345 96.693c-65.2 34.8-91.833 75.5-97 91.5 16-52 67.667-92 91.5-105.5v-2.5c-56.845 32.096-83.689 76.435-90.832 96.516-.227.658-.45 1.32-.668 1.984.199-.632.422-1.294.668-1.984 20.115-58.472 72.434-96.315 96.332-108.016v28Z" />
   <path fill="#D87324"
      d="M294.39 28.693c17.676-10.28 25.301-21.389 27.455-27.322.543-1.497.364-1.904 1.5-.535 7.768 9.365 10.406 24.224 10.906 32.857.184 3.166.131 6.352-.263 9.5-2.511 20.067-17.581 34.833-28.643 42.228-4.594 3.072-9.722 5.048-14.5 7.796-20.612 11.855-26.858 27.047-27.452 34.774-.097 1.26-.05 1.254-.261 0-5.095-30.224 10.308-56.59 21.411-69.298 2.816-3.222 6.12-5.62 9.302-8.451 6.144-5.467 13.736-13.374 17.928-17.926.636-.69.549-.623-.249-.235-8.527 4.138-20.367 13.258-26.981 18.755-1.491 1.24-2.963 2.496-4.347 3.857-17.879 17.588-21.402 45.731-20.874 58.5.025.616.006.428-.066-.087-.508-3.625-1.366-14.347-1.409-33.413-.004-1.784.014-3.56.2-5.337 1.066-10.173 6.214-19.372 12.137-26.663 3.545-4.364 7.577-8.255 12.161-11.525 3.772-2.69 7.765-4.986 12.045-7.475Z" />
</svg>